<svg viewBox="0 0 100 100" fill="none" xmlns="http://www.w3.org/2000/svg">
  <rect width="100" height="100" fill="#1a1a1a"/>
  <g transform="translate(10, 10) scale(0.8)">
    <g transform="matrix(0.354518,0,0,1.063694,-642.032771,-288.057391)">
      <g transform="matrix(0.245516,0,0,0.081828,2322.492063,321.374989)">
        <g transform="matrix(1,0,0,1,-2083.333333,-2083.333333)">
          <g transform="matrix(5.555556,0,0,5.555556,0,0.000014)">
            <path d="M90.633,265.152C89.926,265.52 89.648,265.812 89.281,266.547C89.016,267.047 89,267.855 89,284.535C88.984,304.891 88.926,303.773 90.383,306.934C90.617,307.461 91.047,308.227 91.309,308.625C91.574,309.035 97.105,314.691 103.594,321.188C110.082,327.699 117.555,335.223 120.188,337.914C124.527,342.32 126.586,344.262 126.953,344.262C127.027,344.262 127.25,344.379 127.441,344.527C127.633,344.688 128.027,344.895 128.309,344.996C128.586,345.098 129.086,345.273 129.41,345.391C131.809,346.289 134.824,346.539 137.281,346.039C139.531,345.57 141.328,344.836 142.723,343.777C143.195,343.438 149.594,337.074 160.113,326.508C166.145,320.438 168.426,318.059 168.613,317.617C169.043,316.617 169.102,315.867 168.836,314.898C168.586,314.016 168.586,314.016 161.289,306.711C155.789,301.215 153.801,299.32 153.242,299.027C152.285,298.543 151.152,298.512 150.227,298.953C149.492,299.293 146.301,302.438 131.426,317.398C125.82,323.039 122.496,326.301 122.086,326.508C121.188,326.977 119.086,326.992 118.23,326.523C117.422,326.082 116.613,325.23 116.215,324.348C115.879,323.613 115.879,323.613 115.805,295.25C115.73,269.148 115.715,266.855 115.48,266.445C115.348,266.195 115.098,265.859 114.938,265.684C114.184,264.887 114.656,264.918 102.504,264.875C91.223,264.828 91.223,264.828 90.633,265.152Z" fill="#e8503a"/>
          </g>
          <g transform="matrix(5.555556,0,0,5.555556,0,0.000014)">
            <path d="M52.473,298.688C52.238,298.762 51.887,298.879 51.695,298.953C51.52,299.027 47.973,302.422 43.824,306.508C37.086,313.164 36.262,314.016 36.043,314.664C35.719,315.605 35.836,316.941 36.309,317.648C36.676,318.203 39.191,320.746 53.344,334.84C60.684,342.16 63.199,344.762 63.449,345.273C63.891,346.188 63.977,347.508 63.668,348.582C63.375,349.594 62.535,350.566 61.551,351.051C60.859,351.375 60.859,351.375 32.027,351.418C3.191,351.461 3.191,351.461 2.559,351.801C2.117,352.02 1.797,352.344 1.488,352.887C1.059,353.637 1.059,353.637 1.09,365.086C1.133,376.535 1.133,376.535 1.59,377.152C1.855,377.504 2.309,377.93 2.621,378.09C3.191,378.414 3.191,378.414 21.359,378.457C34.805,378.504 39.777,378.473 40.484,378.34C42.441,377.988 43.516,377.637 45.191,376.754C46.031,376.312 47.621,374.77 58.359,363.996C76.746,345.555 80.543,341.734 80.996,341.191C81.379,340.734 82.395,338.898 82.41,338.633C82.41,338.574 82.543,338.25 82.691,337.898C83.5,336.133 83.762,332.445 83.25,329.934C83.086,329.199 82.91,328.477 82.852,328.316C82.441,327.301 81.602,325.582 81.262,325.082C81.043,324.773 75.129,318.777 68.113,311.781C57.551,301.23 55.27,299.027 54.797,298.895C53.961,298.645 52.973,298.555 52.473,298.688Z" fill="#e8503a"/>
          </g>
          <g transform="matrix(5.555556,0,0,5.555556,0,0.000014)">
            <path d="M181.707,351.461C163.539,351.535 163.539,351.535 162.512,351.875C159.566,352.801 159.008,353.195 154.551,357.723C152.508,359.781 144.871,367.496 137.562,374.844C127.043,385.426 124.113,388.465 123.543,389.348C122.762,390.555 121.938,392.715 121.688,394.258C121.496,395.477 121.496,398.414 121.703,399.398C122.086,401.297 122.91,403.293 123.895,404.734C124.113,405.059 130.016,411.039 136.988,418.004C145.695,426.734 149.828,430.777 150.211,430.922C150.977,431.246 152.508,431.203 153.227,430.836C154.035,430.422 168.426,415.934 168.703,415.258C168.938,414.699 168.996,413.582 168.836,412.656C168.734,412.141 167.438,410.789 155.242,398.562C142.93,386.219 141.738,384.984 141.504,384.309C141.062,383.016 141.031,382.309 141.387,381.176C141.797,379.84 142.652,379.004 143.961,378.633C144.227,378.562 156.566,378.504 172.809,378.504C190.844,378.504 201.391,378.445 201.699,378.355C202.598,378.105 203.273,377.52 203.613,376.711C203.922,375.977 203.922,375.828 203.922,364.852C203.922,354.387 203.891,353.711 203.641,353.152C203.125,352.004 201.934,351.285 200.656,351.344C200.227,351.375 191.695,351.418 181.707,351.461Z" fill="#e8503a"/>
          </g>
          <g transform="matrix(5.555556,0,0,5.555556,0,0.000014)">
            <path d="M67.992,383.645C66.109,384.012 64.773,384.469 63.359,385.246C62.316,385.82 61.641,386.438 57.035,390.98C45.457,402.414 36.395,411.629 36.145,412.23C35.805,413.023 35.836,414.535 36.219,415.316C36.527,415.934 50.531,430.027 51.52,430.688C51.945,430.98 52.211,431.039 53.137,431.039C54.078,431.039 54.328,430.98 54.828,430.66C55.152,430.438 57.68,428 60.434,425.223C78.23,407.32 82.367,403.223 82.895,402.984C83.734,402.605 85.266,402.531 86.25,402.809C86.852,402.984 87.234,403.223 87.75,403.75C89.074,405.086 88.957,402.059 88.957,434.141C88.957,462.227 88.957,462.52 89.25,463.094C89.547,463.664 90,464.105 90.617,464.43C90.883,464.578 93.691,464.621 102.52,464.621C112.742,464.637 114.098,464.605 114.316,464.398C114.465,464.281 114.656,464.18 114.746,464.18C114.848,464.18 115.098,463.902 115.316,463.562C115.73,462.93 115.73,462.93 115.73,444.633C115.73,427.367 115.715,426.277 115.465,425.176C115.008,423.238 114.184,421.516 113.051,420.094C112.098,418.902 79.984,386.836 78.984,386.07C76.969,384.543 74.039,383.586 70.938,383.441C69.805,383.395 69.023,383.441 67.992,383.645Z" fill="#e8503a"/>
          </g>
        </g>
      </g>
    </g>
  </g>
</svg>
